<svg id="Capa_1" enable-background="new 0 0 512 512" height="512" viewBox="0 0 512 512" width="512" xmlns="http://www.w3.org/2000/svg" xmlns:xlink="http://www.w3.org/1999/xlink"><linearGradient id="SVGID_1_" gradientUnits="userSpaceOnUse" x1="256.15" x2="256.15" y1="406" y2="91"><stop offset="0" stop-color="#ffc2cc"/><stop offset="1" stop-color="#fff2f4"/></linearGradient><linearGradient id="SVGID_2_" gradientUnits="userSpaceOnUse" x1="256" x2="256" y1="421" y2="96.1"><stop offset="0" stop-color="#fd3a84"/><stop offset="1" stop-color="#ffa68d"/></linearGradient><g><g><g><path d="m497 91h-482c-4.501 0-8.401 2.1-11.1 5.1l252.1 309.9 252.4-309.9c-2.701-3-6.901-5.1-11.4-5.1z" fill="url(#SVGID_1_)"/></g></g><g><g><path d="m508.4 96.1-242.541 211.31c-5.65 4.923-14.066 4.92-19.714-.006l-242.245-211.304c-2.4 2.7-3.9 6-3.9 9.9v300c0 8.101 6.899 15 15 15h482c8.399 0 15-6.899 15-15v-300c0-3.9-1.501-7.2-3.6-9.9z" fill="url(#SVGID_2_)"/></g></g></g></svg>