<?xml version="1.0" encoding="utf-8"?>
<!-- Generator: Adobe Illustrator 22.1.0, SVG Export Plug-In . SVG Version: 6.00 Build 0)  -->
<svg version="1.1" id="Capa_1" xmlns="http://www.w3.org/2000/svg" xmlns:xlink="http://www.w3.org/1999/xlink" x="0px" y="0px"
	 viewBox="0 0 1200 1200" style="enable-background:new 0 0 1200 1200;" xml:space="preserve">
<style type="text/css">
	.st0{fill:#46B4BC;}
	.st1{fill:#3C3C3B;}
	.st2{fill:#FDC70C;}
	.st3{fill:#FFFFFF;}
	.st4{fill:#027BA4;}
	.st5{fill:#47B5BE;}
	.st6{fill:#FFC909;}
	.st7{clip-path:url(#SVGID_4_);}
	.st8{fill:url(#SVGID_7_);}
	.st9{fill:url(#SVGID_8_);}
	.st10{fill:url(#SVGID_9_);}
	.st11{fill:url(#SVGID_10_);}
</style>
<g>
	<g>
		<g>
			<path class="st5" d="M810.8,866.4H389.2c-30.6,0-55.6-25-55.6-55.6V389.2c0-30.6,25-55.6,55.6-55.6h421.6
				c30.6,0,55.6,25,55.6,55.6v421.6C866.4,841.4,841.4,866.4,810.8,866.4z"/>
			<path class="st6" d="M810.8,866.4h-200V333.6h200c30.6,0,55.6,25,55.6,55.6v421.6C866.4,841.4,841.4,866.4,810.8,866.4z"/>
		</g>
	</g>
	<g>
		<g>
			<path class="st5" d="M481.4,666c-0.6,0.6-0.6,1.5,0.1,2c6.9,5.3,18.8,8,35.5,8c19.2,0,35.5-6.7,49.1-20.2
				c1.7-1.8,163.1-161.8,173.3-172.9c0.3-0.3,0.6-0.4,1-0.4h51.7c1.2,0,1.8,1.4,1,2.3c-21.8,25.1-193.7,196.1-197.9,200.4
				c-21.6,21.6-47.7,32.4-78.2,32.4c-33.2,0-61.1-12.9-83.8-38.6c-15.5-17.6-24.8-40-26.3-63.4c-2.2-34.3,8.5-63.3,32.1-86.9
				c21.6-21.6,47.6-32.4,78-32.4c26.1,0,49,7.9,68.7,23.7c3.2,2.7,6.4,5.6,9.5,8.7c1.2,1.2,4.6,5,10.2,11.2c0.5,0.5,0.5,1.4,0,1.9
				l-19.3,19.5L481.4,666z M546.3,544c0.7-0.7,0.5-1.7-0.3-2.2c-5.1-2.8-14.7-4.3-29-4.3c-16.1,0-30.2,4.8-42.4,14.5
				c-17.7,14.1-27.2,36.3-26.7,59c0.3,11.8,1.7,20.1,4.2,24.7c0.4,0.8,1.5,1,2.2,0.3L546.3,544z"/>
			<path class="st5" d="M667.4,659.9l53.9,56.1c0.3,0.3,0.6,0.4,1,0.4l55.8-0.1c1.2,0,1.8-1.5,1-2.3l-82.7-82.8
				c-0.5-0.5-1.4-0.5-1.9,0L667.4,658C666.8,658.5,666.8,659.4,667.4,659.9z"/>
		</g>
	</g>
	<g>
		<g>
			<defs>
				<rect id="SVGID_1_" x="396.8" y="439.9" width="214" height="363.4"/>
			</defs>
			<clipPath id="SVGID_2_">
				<use xlink:href="#SVGID_1_"  style="overflow:visible;"/>
			</clipPath>
		</g>
		<g>
			<defs>
				<rect id="SVGID_3_" x="396.8" y="439.9" width="214" height="363.4"/>
			</defs>
			<clipPath id="SVGID_4_">
				<use xlink:href="#SVGID_3_"  style="overflow:visible;"/>
			</clipPath>
			<g class="st7">
				<path class="st6" d="M481.4,666c-0.6,0.6-0.6,1.5,0.1,2c6.9,5.3,18.8,8,35.5,8c19.2,0,35.5-6.7,49.1-20.2
					c1.7-1.8,163.1-161.8,173.3-172.9c0.3-0.3,0.6-0.4,1-0.4h51.7c1.2,0,1.8,1.4,1,2.3c-21.8,25.1-193.7,196.1-197.9,200.4
					c-21.6,21.6-47.7,32.4-78.2,32.4c-33.2,0-61.1-12.9-83.8-38.6c-15.5-17.6-24.8-40-26.3-63.4c-2.2-34.3,8.5-63.3,32.1-86.9
					c21.6-21.6,47.6-32.4,78-32.4c26.1,0,49,7.9,68.7,23.7c3.2,2.7,6.4,5.6,9.5,8.7c1.2,1.2,4.6,5,10.2,11.2c0.5,0.5,0.5,1.4,0,1.9
					l-19.3,19.5L481.4,666z M546.3,544c0.7-0.7,0.5-1.7-0.3-2.2c-5.1-2.8-14.7-4.3-29-4.3c-16.1,0-30.2,4.8-42.4,14.5
					c-17.7,14.1-27.2,36.3-26.7,59c0.3,11.8,1.7,20.1,4.2,24.7c0.4,0.8,1.5,1,2.2,0.3L546.3,544z"/>
				<path class="st6" d="M667.4,659.9l53.9,56.1c0.3,0.3,0.6,0.4,1,0.4l55.8-0.1c1.2,0,1.8-1.5,1-2.3l-82.7-82.8
					c-0.5-0.5-1.4-0.5-1.9,0L667.4,658C666.8,658.5,666.8,659.4,667.4,659.9z"/>
			</g>
		</g>
		<g>
			<defs>
				<rect id="SVGID_5_" x="396.8" y="439.9" width="214" height="363.4"/>
			</defs>
			<clipPath id="SVGID_6_">
				<use xlink:href="#SVGID_5_"  style="overflow:visible;"/>
			</clipPath>
		</g>
	</g>
</g>
</svg>
