<?xml version="1.0" encoding="utf-8"?>
<!-- Generator: Adobe Illustrator 22.1.0, SVG Export Plug-In . SVG Version: 6.00 Build 0)  -->
<svg version="1.1" id="Capa_1" xmlns="http://www.w3.org/2000/svg" xmlns:xlink="http://www.w3.org/1999/xlink" x="0px" y="0px"
	 viewBox="0 0 1200 1200" style="enable-background:new 0 0 1200 1200;" xml:space="preserve">
<style type="text/css">
	.st0{fill:#46B4BC;}
	.st1{fill:#3C3C3B;}
	.st2{fill:#FDC70C;}
	.st3{fill:#FFFFFF;}
	.st4{fill:#027BA4;}
	.st5{fill:#47B5BE;}
	.st6{fill:#FFC909;}
	.st7{clip-path:url(#SVGID_4_);}
	.st8{fill:url(#SVGID_7_);}
	.st9{fill:url(#SVGID_8_);}
	.st10{fill:url(#SVGID_9_);}
	.st11{fill:url(#SVGID_10_);}
</style>
<g>
	<linearGradient id="SVGID_2_" gradientUnits="userSpaceOnUse" x1="600" y1="868" x2="600" y2="332">
		<stop  offset="0" style="stop-color:#087CA5"/>
		<stop  offset="0.4476" style="stop-color:#2093AF"/>
		<stop  offset="1" style="stop-color:#43B5BE"/>
	</linearGradient>
	<path style="fill:url(#SVGID_2_);" d="M825.9,868H374.1c-23.1,0-42.1-18.9-42.1-42.1V374.1c0-23.1,18.9-42.1,42.1-42.1h451.9
		c23.1,0,42.1,18.9,42.1,42.1v451.9C868,849.1,849.1,868,825.9,868z"/>
</g>
<g>
	<g>
		<path class="st3" d="M480.7,650.8c-0.6,0.6-0.6,1.6,0.1,2.1c7,5.3,18.9,8,35.7,8c19.3,0,35.7-6.8,49.4-20.3
			c1.7-1.8,164.1-162.8,174.3-174c0.3-0.3,0.6-0.4,1-0.4h52c1.2,0,1.8,1.4,1,2.3c-21.9,25.2-194.9,197.3-199.1,201.6
			c-21.7,21.7-48,32.6-78.7,32.6c-33.4,0-61.5-12.9-84.4-38.8c-15.6-17.7-25-40.2-26.5-63.8c-2.2-34.5,8.6-63.7,32.3-87.4
			c21.7-21.7,47.9-32.6,78.5-32.6c26.3,0,49.3,7.9,69.1,23.8c3.3,2.7,6.4,5.7,9.6,8.8c1.2,1.2,4.7,5,10.3,11.3
			c0.5,0.5,0.5,1.4,0,1.9L586,545.5L480.7,650.8z M545.9,528.1c0.7-0.7,0.5-1.7-0.3-2.2c-5.1-2.9-14.8-4.3-29.1-4.3
			c-16.2,0-30.4,4.9-42.6,14.6c-17.8,14.2-27.3,36.5-26.8,59.3c0.3,11.9,1.7,20.2,4.2,24.9c0.5,0.8,1.5,1,2.2,0.3L545.9,528.1z"/>
		<path class="st3" d="M667.8,644.8l54.3,56.4c0.3,0.3,0.6,0.4,1,0.4l56.2-0.1c1.2,0,1.8-1.5,1-2.3L697,615.8
			c-0.5-0.5-1.4-0.5-1.9,0l-27.2,27C667.3,643.4,667.2,644.2,667.8,644.8z"/>
	</g>
</g>
</svg>
