<svg id="svg" version="1.1" xmlns="http://www.w3.org/2000/svg" xmlns:xlink="http://www.w3.org/1999/xlink" width="400" height="232.08510638297872" viewBox="0, 0, 400,232.08510638297872"><g id="svgg"><path id="path0" d="M0.000 116.000 L 0.000 232.000 200.000 232.000 L 400.000 232.000 400.000 116.000 L 400.000 0.000 200.000 0.000 L 0.000 0.000 0.000 116.000 M206.077 102.234 C 208.276 103.911,206.106 107.388,203.614 106.181 C 202.292 105.541,201.869 104.282,202.546 103.002 C 203.271 101.631,204.839 101.290,206.077 102.234 M152.833 106.175 C 152.833 106.797,135.541 123.659,134.308 124.240 C 128.205 127.115,121.325 122.793,121.335 116.090 C 121.347 108.120,131.092 104.080,136.685 109.726 L 137.682 110.732 132.591 115.825 C 129.791 118.627,127.500 120.972,127.500 121.038 C 127.500 121.349,129.440 121.707,130.670 121.623 C 132.911 121.469,132.892 121.485,141.083 113.316 L 148.417 106.003 150.625 106.002 C 152.060 106.001,152.833 106.061,152.833 106.175 M164.750 107.170 C 169.171 107.789,172.554 112.014,172.286 116.583 C 171.876 123.597,164.107 127.577,158.649 123.570 L 157.833 122.972 157.833 126.569 L 157.833 130.167 156.082 130.167 L 154.331 130.167 154.374 119.292 L 154.417 108.417 156.125 108.369 L 157.833 108.322 157.833 109.017 L 157.833 109.712 158.645 108.953 C 160.378 107.332,162.170 106.809,164.750 107.170 M185.741 107.588 C 187.118 108.065,188.437 108.938,189.351 109.976 L 190.016 110.732 186.300 114.460 C 184.256 116.511,181.963 118.799,181.205 119.544 C 179.625 121.098,179.628 121.214,181.255 121.515 C 183.388 121.910,185.355 121.308,186.731 119.837 L 187.503 119.011 188.960 119.523 C 191.044 120.255,190.963 120.128,190.083 121.299 C 184.684 128.481,173.667 124.997,173.667 116.107 C 173.667 109.822,179.769 105.516,185.741 107.588 M219.218 107.181 C 221.262 107.490,225.000 109.783,225.000 110.728 C 225.000 110.833,222.750 113.168,220.000 115.917 C 214.443 121.471,214.772 121.062,215.625 121.357 C 217.650 122.056,220.226 121.422,221.752 119.848 L 222.539 119.037 223.978 119.522 C 226.039 120.216,225.991 120.157,225.273 121.136 C 221.731 125.960,215.408 126.586,211.336 122.514 C 205.121 116.299,210.485 105.862,219.218 107.181 M253.878 107.170 C 256.252 107.513,258.160 108.664,259.774 110.726 C 260.815 112.057,260.879 111.928,258.793 112.681 L 257.336 113.206 256.431 112.287 C 253.055 108.856,247.305 111.019,247.038 115.821 C 246.750 120.989,252.890 123.589,256.563 119.855 L 257.376 119.029 258.964 119.596 C 259.838 119.908,260.580 120.191,260.614 120.225 C 260.647 120.258,260.349 120.728,259.951 121.268 C 256.487 125.974,250.210 126.537,246.156 122.504 C 239.955 116.336,245.203 105.915,253.878 107.170 M273.744 107.523 C 275.046 107.957,275.903 108.462,276.975 109.426 C 278.486 110.785,278.821 110.216,273.177 115.895 C 267.594 121.515,267.976 121.047,268.708 121.351 C 270.546 122.113,273.340 121.437,274.896 119.855 L 275.709 119.029 277.298 119.596 C 278.171 119.908,278.920 120.197,278.961 120.238 C 279.090 120.368,277.548 122.259,276.664 123.054 C 272.488 126.809,265.368 125.365,262.787 120.240 C 259.159 113.036,266.105 104.974,273.744 107.523 M237.917 108.041 C 240.852 109.559,241.369 111.286,241.298 119.333 L 241.250 124.750 239.583 124.750 L 237.917 124.750 237.833 118.917 C 237.751 113.146,237.746 113.077,237.363 112.541 C 236.035 110.678,233.612 110.435,232.073 112.010 L 231.417 112.682 231.369 118.758 L 231.321 124.833 229.661 124.833 L 228.000 124.833 228.000 116.583 L 228.000 108.333 229.667 108.333 L 231.333 108.333 231.337 109.042 L 231.340 109.750 231.938 109.037 C 233.266 107.452,235.923 107.010,237.917 108.041 M200.833 109.723 L 200.833 111.447 199.913 111.653 C 198.599 111.947,197.708 112.687,197.000 114.073 L 196.417 115.215 196.333 119.982 L 196.250 124.750 194.667 124.750 L 193.083 124.750 193.040 116.542 L 192.997 108.333 194.665 108.333 L 196.333 108.333 196.333 109.356 L 196.333 110.379 197.140 109.624 C 198.253 108.584,199.331 108.047,200.375 108.014 L 200.833 108.000 200.833 109.723 M206.293 116.542 L 206.250 124.750 204.583 124.750 L 202.917 124.750 202.873 116.750 C 202.849 112.350,202.866 108.656,202.910 108.542 C 202.966 108.394,203.478 108.333,204.663 108.333 L 206.336 108.333 206.293 116.542 M129.204 110.668 C 126.565 111.221,124.833 113.463,124.833 116.329 C 124.833 118.941,124.643 119.016,128.909 114.712 C 131.365 112.234,132.589 110.886,132.453 110.811 C 132.091 110.608,129.943 110.514,129.204 110.668 M216.884 110.687 C 214.093 111.033,212.255 113.286,212.252 116.367 C 212.249 118.743,212.121 118.799,216.324 114.593 L 220.055 110.859 219.486 110.769 C 218.420 110.601,217.751 110.580,216.884 110.687 M161.491 110.859 C 157.799 111.846,156.547 117.179,159.350 119.984 C 162.859 123.497,168.776 121.031,168.740 116.071 C 168.714 112.330,165.265 109.851,161.491 110.859 M180.540 111.021 C 179.463 111.435,178.214 112.618,177.659 113.750 C 177.241 114.601,177.037 117.925,177.381 118.270 C 177.453 118.342,179.197 116.718,181.256 114.661 C 184.247 111.672,184.940 110.897,184.708 110.805 C 184.045 110.543,181.432 110.678,180.540 111.021 M268.812 110.984 C 266.497 111.890,265.179 114.129,265.372 116.829 C 265.501 118.639,265.373 118.707,269.438 114.646 C 272.417 111.668,273.107 110.897,272.874 110.805 C 272.251 110.559,269.601 110.675,268.812 110.984 M148.417 121.500 L 151.914 125.000 149.411 125.000 L 146.909 125.000 145.578 123.625 C 144.846 122.869,143.838 121.818,143.337 121.291 L 142.427 120.332 143.584 119.166 C 144.220 118.525,144.781 118.000,144.830 118.000 C 144.879 118.000,146.493 119.575,148.417 121.500 " stroke="none" fill="#3c3c3c" fill-rule="evenodd"></path><path id="path1" d="M203.474 102.087 C 201.988 102.894,202.010 105.224,203.510 106.029 C 205.549 107.122,207.709 104.855,206.507 102.883 C 205.914 101.911,204.488 101.536,203.474 102.087 M161.463 107.413 C 160.446 107.693,159.428 108.301,158.548 109.153 C 157.685 109.990,157.667 109.990,157.667 109.167 L 157.667 108.500 156.083 108.500 L 154.500 108.500 154.500 119.333 L 154.500 130.167 156.083 130.167 L 157.667 130.167 157.667 126.500 C 157.667 124.483,157.725 122.833,157.795 122.833 C 157.866 122.833,158.185 123.044,158.504 123.302 C 164.748 128.347,173.969 121.790,171.903 113.774 C 170.740 109.266,165.758 106.231,161.463 107.413 M180.439 107.431 C 175.079 108.728,172.188 114.947,174.607 119.977 C 177.122 125.207,184.154 126.717,188.438 122.947 C 189.148 122.322,190.764 120.359,190.643 120.269 C 190.610 120.245,189.895 119.983,189.054 119.686 L 187.524 119.148 186.824 119.907 C 185.312 121.548,182.370 122.260,180.458 121.449 C 179.576 121.074,179.349 121.364,184.840 115.857 C 190.474 110.207,190.147 110.759,188.637 109.438 C 186.389 107.471,183.349 106.727,180.439 107.431 M215.320 107.472 C 211.596 108.444,208.833 112.087,208.833 116.027 C 208.833 125.012,220.219 128.420,225.266 120.945 C 225.502 120.594,225.671 120.291,225.640 120.270 C 225.609 120.250,224.918 119.986,224.106 119.683 L 222.628 119.133 221.772 119.975 C 220.119 121.602,217.344 122.250,215.458 121.449 C 214.592 121.081,214.311 121.437,219.833 115.917 C 222.583 113.168,224.833 110.833,224.833 110.727 C 224.833 110.447,222.998 108.795,222.105 108.271 C 220.361 107.249,217.476 106.909,215.320 107.472 M250.295 107.426 C 244.465 108.839,241.701 115.875,244.981 120.951 C 247.896 125.460,254.320 126.425,258.271 122.947 C 258.981 122.322,260.597 120.359,260.476 120.269 C 260.443 120.245,259.728 119.983,258.887 119.686 L 257.358 119.148 256.658 119.907 C 253.606 123.218,248.183 121.843,247.064 117.475 C 245.643 111.930,252.466 108.148,256.540 112.222 L 257.373 113.056 258.783 112.570 C 259.558 112.302,260.272 112.035,260.368 111.977 C 260.623 111.822,258.840 109.655,257.885 108.959 C 255.654 107.334,252.938 106.785,250.295 107.426 M268.606 107.431 C 264.360 108.459,261.436 112.811,262.001 117.264 C 262.901 124.363,271.515 127.579,276.775 122.780 C 277.606 122.022,278.945 120.372,278.812 120.271 C 278.778 120.245,278.080 119.984,277.260 119.690 L 275.771 119.156 274.927 119.987 C 273.286 121.602,270.505 122.247,268.625 121.449 C 267.759 121.081,267.477 121.437,273.000 115.917 C 275.750 113.168,278.000 110.833,278.000 110.727 C 278.000 110.380,275.988 108.665,274.987 108.160 C 273.090 107.202,270.685 106.928,268.606 107.431 M233.417 107.973 C 232.683 108.323,232.015 108.980,231.610 109.750 L 231.347 110.250 231.340 109.369 L 231.333 108.488 229.708 108.536 L 228.083 108.583 228.083 116.583 L 228.083 124.583 229.708 124.631 L 231.333 124.679 231.333 118.679 L 231.333 112.678 231.874 112.063 C 233.293 110.447,235.703 110.442,237.117 112.053 C 237.943 112.993,237.998 113.447,237.999 119.292 L 238.000 124.667 239.583 124.667 L 241.167 124.667 241.163 118.875 C 241.158 111.855,240.973 110.876,239.335 109.188 C 237.950 107.761,235.090 107.174,233.417 107.973 M199.667 108.279 C 198.619 108.546,197.641 109.142,196.930 109.945 C 196.257 110.705,196.167 110.653,196.167 109.500 L 196.167 108.500 194.582 108.500 L 192.997 108.500 193.040 116.542 L 193.083 124.583 194.611 124.631 L 196.139 124.679 196.201 120.048 C 196.269 114.905,196.352 114.453,197.488 113.039 C 198.095 112.285,199.411 111.500,200.069 111.500 C 200.644 111.500,200.689 111.344,200.632 109.551 L 200.583 108.045 199.667 108.279 M203.000 116.583 L 203.000 124.667 204.583 124.667 L 206.167 124.667 206.167 116.583 L 206.167 108.500 204.583 108.500 L 203.000 108.500 203.000 116.583 M165.750 111.040 C 170.950 113.737,169.230 121.665,163.430 121.730 C 158.137 121.789,155.606 115.450,159.518 111.932 C 161.190 110.429,163.840 110.049,165.750 111.040 M184.992 110.759 C 185.104 110.871,183.894 112.190,181.326 114.755 C 177.144 118.931,177.277 118.854,177.070 117.201 C 176.582 113.293,179.211 110.395,183.121 110.532 C 184.058 110.565,184.900 110.667,184.992 110.759 M219.772 110.675 C 220.231 110.849,220.219 110.864,216.362 114.717 C 212.101 118.974,212.271 118.883,212.086 117.013 C 211.798 114.111,213.492 111.472,216.167 110.656 C 216.797 110.463,219.250 110.476,219.772 110.675 M273.161 110.761 C 273.270 110.870,272.034 112.217,269.492 114.755 C 265.277 118.964,265.436 118.878,265.242 117.064 C 264.922 114.082,266.527 111.565,269.333 110.647 C 269.897 110.462,272.953 110.553,273.161 110.761 " stroke="none" fill="#f9f9f9" fill-rule="evenodd"></path><path id="path2" d="M141.666 112.927 C 132.304 122.303,131.505 122.799,128.013 121.403 C 127.107 121.040,126.710 121.542,132.424 115.826 L 137.515 110.733 136.466 109.729 C 130.041 103.579,119.834 109.422,121.658 118.206 C 122.866 124.027,130.110 126.898,135.182 123.565 C 136.270 122.850,152.667 106.531,152.667 106.163 C 152.667 106.066,151.846 106.000,150.624 106.000 L 148.582 106.000 141.666 112.927 M132.119 110.598 C 133.015 110.734,132.948 110.826,129.016 114.810 C 124.578 119.306,124.747 119.246,124.755 116.349 C 124.761 114.342,125.022 113.590,126.165 112.292 C 127.565 110.701,129.381 110.184,132.119 110.598 M143.667 119.249 L 142.594 120.332 143.421 121.208 C 143.875 121.689,144.883 122.740,145.662 123.542 L 147.076 125.000 149.288 125.000 C 150.505 125.000,151.500 124.943,151.500 124.873 C 151.500 124.734,144.966 118.167,144.827 118.167 C 144.779 118.167,144.258 118.654,143.667 119.249 " stroke="none" fill="#44b3bb" fill-rule="evenodd"></path><path id="path3" d="M204.294 101.785 C 204.501 101.824,204.801 101.823,204.960 101.781 C 205.120 101.739,204.950 101.707,204.583 101.709 C 204.217 101.711,204.086 101.745,204.294 101.785 M162.960 107.118 C 163.168 107.158,163.468 107.156,163.627 107.115 C 163.786 107.073,163.617 107.040,163.250 107.042 C 162.883 107.044,162.753 107.078,162.960 107.118 M182.460 107.118 C 182.668 107.158,182.968 107.156,183.127 107.115 C 183.286 107.073,183.117 107.040,182.750 107.042 C 182.383 107.044,182.253 107.078,182.460 107.118 M217.460 107.118 C 217.668 107.158,217.968 107.156,218.127 107.115 C 218.286 107.073,218.117 107.040,217.750 107.042 C 217.383 107.044,217.253 107.078,217.460 107.118 M252.208 107.115 C 252.369 107.157,252.631 107.157,252.792 107.115 C 252.952 107.073,252.821 107.039,252.500 107.039 C 252.179 107.039,252.048 107.073,252.208 107.115 M270.627 107.118 C 270.834 107.158,271.134 107.156,271.294 107.115 C 271.453 107.073,271.283 107.040,270.917 107.042 C 270.550 107.044,270.420 107.078,270.627 107.118 M234.875 107.621 C 235.219 107.657,235.781 107.657,236.125 107.621 C 236.469 107.585,236.188 107.556,235.500 107.556 C 234.813 107.556,234.531 107.585,234.875 107.621 M274.514 107.895 C 274.685 108.049,275.667 108.500,275.667 108.425 C 275.667 108.329,274.743 107.833,274.564 107.833 C 274.498 107.833,274.476 107.861,274.514 107.895 M200.636 109.750 C 200.607 110.713,200.640 111.501,200.708 111.500 C 200.777 111.500,200.833 110.712,200.833 109.750 C 200.833 107.488,200.703 107.488,200.636 109.750 M167.996 108.451 C 168.223 108.615,168.673 108.972,168.996 109.243 L 169.583 109.735 169.132 109.241 C 168.885 108.970,168.435 108.613,168.132 108.450 C 167.604 108.163,167.599 108.163,167.996 108.451 M232.240 108.708 L 231.750 109.250 232.292 108.760 C 232.797 108.304,232.910 108.167,232.781 108.167 C 232.752 108.167,232.509 108.410,232.240 108.708 M154.410 108.542 C 154.366 108.656,154.350 113.550,154.375 119.417 L 154.419 130.083 154.460 119.292 L 154.500 108.500 156.083 108.500 L 157.667 108.500 157.667 109.167 C 157.667 109.817,157.860 110.028,158.099 109.641 C 158.173 109.522,158.145 109.494,158.026 109.567 C 157.892 109.650,157.833 109.479,157.833 109.010 L 157.833 108.333 156.161 108.333 C 154.977 108.333,154.466 108.394,154.410 108.542 M187.750 108.698 C 188.025 108.908,188.557 109.343,188.932 109.665 C 189.414 110.078,189.373 110.017,188.795 109.457 C 188.344 109.022,187.812 108.586,187.612 108.490 C 187.401 108.388,187.458 108.474,187.750 108.698 M194.542 108.458 L 196.167 108.512 196.167 109.506 C 196.167 110.585,196.278 110.701,196.766 110.125 L 197.083 109.750 196.708 110.067 L 196.333 110.385 196.333 109.359 L 196.333 108.333 194.625 108.368 L 192.917 108.403 194.542 108.458 M202.912 108.536 C 202.867 108.654,202.849 112.350,202.873 116.750 L 202.917 124.750 204.583 124.750 L 206.250 124.750 206.250 116.583 L 206.250 108.417 204.622 108.369 C 203.413 108.333,202.973 108.376,202.912 108.536 M228.000 108.458 C 227.999 108.527,228.543 108.563,229.208 108.538 C 231.284 108.459,231.485 108.388,229.708 108.360 C 228.769 108.345,228.000 108.390,228.000 108.458 M206.167 116.583 L 206.167 124.667 204.583 124.667 L 203.000 124.667 203.000 116.583 L 203.000 108.500 204.583 108.500 L 206.167 108.500 206.167 116.583 M246.500 109.356 L 245.750 110.035 246.456 109.505 C 247.070 109.045,247.464 108.656,247.302 108.672 C 247.273 108.674,246.912 108.982,246.500 109.356 M211.328 109.792 L 210.417 110.750 211.375 109.839 C 212.265 108.993,212.410 108.833,212.286 108.833 C 212.260 108.833,211.829 109.265,211.328 109.792 M224.042 109.756 C 224.477 110.217,224.833 110.667,224.833 110.755 C 224.833 110.843,222.565 113.187,219.792 115.965 C 215.034 120.731,214.768 121.030,215.074 121.258 C 215.251 121.391,215.476 121.495,215.574 121.489 C 215.671 121.483,215.581 121.396,215.375 121.297 C 214.835 121.036,214.573 121.341,220.000 115.917 C 222.750 113.168,225.000 110.840,225.000 110.745 C 225.000 110.649,224.606 110.199,224.125 109.744 L 223.250 108.917 224.042 109.756 M277.083 109.667 C 277.441 110.033,277.772 110.333,277.818 110.333 C 277.863 110.333,277.608 110.033,277.250 109.667 C 276.892 109.300,276.562 109.000,276.516 109.000 C 276.470 109.000,276.725 109.300,277.083 109.667 M231.505 109.578 C 231.393 109.712,231.330 109.908,231.366 110.013 C 231.401 110.118,231.519 110.008,231.628 109.769 C 231.850 109.281,231.807 109.213,231.505 109.578 M245.116 110.875 C 244.664 111.487,244.359 112.013,244.610 111.750 C 244.919 111.425,245.682 110.333,245.600 110.333 C 245.554 110.333,245.337 110.577,245.116 110.875 M259.833 111.000 C 260.124 111.367,260.399 111.667,260.445 111.667 C 260.491 111.667,260.290 111.367,260.000 111.000 C 259.710 110.633,259.434 110.333,259.389 110.333 C 259.343 110.333,259.543 110.633,259.833 111.000 M162.294 110.618 C 162.501 110.658,162.801 110.656,162.960 110.615 C 163.120 110.573,162.950 110.540,162.583 110.542 C 162.217 110.544,162.086 110.578,162.294 110.618 M163.708 110.615 C 163.869 110.657,164.131 110.657,164.292 110.615 C 164.452 110.573,164.321 110.539,164.000 110.539 C 163.679 110.539,163.548 110.573,163.708 110.615 M181.083 110.668 C 180.869 110.761,181.047 110.778,181.583 110.716 C 182.042 110.663,182.448 110.593,182.486 110.560 C 182.631 110.435,181.402 110.530,181.083 110.668 M183.211 110.620 C 183.464 110.658,183.839 110.657,184.044 110.617 C 184.249 110.578,184.042 110.546,183.583 110.548 C 183.125 110.549,182.957 110.581,183.211 110.620 M216.708 110.615 C 216.869 110.657,217.131 110.657,217.292 110.615 C 217.452 110.573,217.321 110.539,217.000 110.539 C 216.679 110.539,216.548 110.573,216.708 110.615 M218.333 110.600 C 218.654 110.639,219.173 110.712,219.486 110.764 L 220.055 110.859 216.324 114.593 C 214.272 116.646,212.541 118.272,212.477 118.205 C 212.414 118.138,212.328 117.896,212.287 117.667 L 212.212 117.250 212.192 117.667 C 212.134 118.870,212.375 118.700,216.326 114.755 C 220.474 110.613,220.465 110.627,218.794 110.568 C 218.220 110.547,218.012 110.562,218.333 110.600 M251.542 110.615 C 251.702 110.657,251.965 110.657,252.125 110.615 C 252.285 110.573,252.154 110.539,251.833 110.539 C 251.512 110.539,251.381 110.573,251.542 110.615 M252.875 110.615 C 253.035 110.657,253.298 110.657,253.458 110.615 C 253.619 110.573,253.487 110.539,253.167 110.539 C 252.846 110.539,252.715 110.573,252.875 110.615 M269.875 110.615 C 270.035 110.657,270.298 110.657,270.458 110.615 C 270.619 110.573,270.487 110.539,270.167 110.539 C 269.846 110.539,269.715 110.573,269.875 110.615 M271.377 110.620 C 271.631 110.658,272.006 110.657,272.211 110.617 C 272.416 110.578,272.208 110.546,271.750 110.548 C 271.292 110.549,271.124 110.581,271.377 110.620 M184.710 110.806 C 184.946 110.900,184.256 111.668,181.202 114.711 C 179.111 116.795,177.442 118.500,177.493 118.500 C 177.706 118.500,185.169 110.892,185.062 110.784 C 184.997 110.719,184.826 110.672,184.681 110.678 C 184.464 110.688,184.470 110.711,184.710 110.806 M272.874 110.805 C 273.107 110.897,272.414 111.671,269.423 114.660 C 266.985 117.096,265.654 118.315,265.604 118.158 C 265.376 117.448,265.359 117.422,265.349 117.750 C 265.314 118.851,265.591 118.651,269.487 114.761 C 273.129 111.124,273.520 110.651,272.865 110.678 C 272.608 110.689,272.609 110.700,272.874 110.805 M234.042 110.953 C 234.294 110.991,234.706 110.991,234.958 110.953 C 235.210 110.915,235.004 110.883,234.500 110.883 C 233.996 110.883,233.790 110.915,234.042 110.953 M166.535 111.656 C 166.875 111.944,167.381 112.457,167.660 112.795 C 167.939 113.133,168.167 113.351,168.167 113.281 C 168.167 113.079,166.636 111.494,166.257 111.303 C 166.070 111.209,166.195 111.368,166.535 111.656 M178.903 111.929 L 178.250 112.524 178.958 111.984 C 179.606 111.491,179.763 111.333,179.611 111.333 C 179.581 111.333,179.262 111.601,178.903 111.929 M231.991 111.958 L 231.417 112.583 232.042 112.009 C 232.623 111.474,232.743 111.333,232.616 111.333 C 232.588 111.333,232.307 111.615,231.991 111.958 M236.833 111.917 C 237.153 112.283,237.481 112.658,237.562 112.750 C 237.642 112.842,237.630 112.767,237.535 112.583 C 237.440 112.400,237.112 112.025,236.806 111.750 L 236.250 111.251 236.833 111.917 M159.242 112.208 L 158.583 112.917 159.292 112.258 C 159.681 111.895,160.000 111.577,160.000 111.550 C 160.000 111.423,159.855 111.550,159.242 112.208 M199.333 111.674 C 199.151 111.798,199.218 111.813,199.583 111.732 C 200.196 111.595,200.329 111.499,199.903 111.503 C 199.727 111.504,199.471 111.581,199.333 111.674 M275.667 113.250 C 274.984 113.938,274.463 114.500,274.508 114.500 C 274.554 114.500,275.150 113.938,275.833 113.250 C 276.516 112.563,277.037 112.000,276.992 112.000 C 276.946 112.000,276.350 112.563,275.667 113.250 M196.998 113.708 C 196.817 114.006,196.668 114.319,196.667 114.403 C 196.667 114.593,196.690 114.562,197.131 113.792 C 197.569 113.026,197.457 112.956,196.998 113.708 M171.862 113.500 C 171.870 113.933,172.133 114.644,172.138 114.250 C 172.141 114.067,172.079 113.767,172.000 113.583 C 171.912 113.379,171.859 113.347,171.862 113.500 M241.206 118.958 L 241.167 124.667 239.586 124.667 L 238.004 124.667 237.957 119.208 L 237.910 113.750 237.913 119.250 L 237.917 124.750 239.545 124.798 C 241.550 124.857,241.347 125.547,241.292 118.832 L 241.245 113.250 241.206 118.958 M157.773 114.535 C 157.717 114.745,157.683 115.517,157.696 116.250 L 157.722 117.583 157.830 115.917 C 157.945 114.145,157.936 113.927,157.773 114.535 M173.709 114.917 C 173.711 115.283,173.745 115.414,173.785 115.206 C 173.824 114.999,173.823 114.699,173.781 114.540 C 173.739 114.380,173.707 114.550,173.709 114.917 M208.726 116.083 C 208.725 116.908,208.754 117.267,208.788 116.880 C 208.823 116.493,208.824 115.818,208.789 115.380 C 208.755 114.942,208.726 115.258,208.726 116.083 M261.872 115.167 C 261.872 115.487,261.906 115.619,261.948 115.458 C 261.990 115.298,261.990 115.035,261.948 114.875 C 261.906 114.715,261.872 114.846,261.872 115.167 M172.224 116.083 C 172.224 116.817,172.254 117.096,172.289 116.704 C 172.324 116.312,172.324 115.712,172.288 115.371 C 172.252 115.029,172.223 115.350,172.224 116.083 M177.053 116.333 C 177.053 116.929,177.084 117.173,177.121 116.875 C 177.158 116.577,177.158 116.090,177.121 115.792 C 177.084 115.494,177.053 115.737,177.053 116.333 M246.881 116.083 C 246.882 116.542,246.915 116.709,246.953 116.456 C 246.991 116.203,246.990 115.828,246.951 115.623 C 246.911 115.418,246.880 115.625,246.881 116.083 M265.218 116.250 C 265.219 116.800,265.250 117.005,265.287 116.705 C 265.325 116.406,265.324 115.956,265.286 115.705 C 265.248 115.455,265.217 115.700,265.218 116.250 M212.048 116.250 C 212.049 116.708,212.081 116.876,212.120 116.623 C 212.158 116.369,212.157 115.994,212.117 115.789 C 212.078 115.584,212.046 115.792,212.048 116.250 M196.239 120.417 C 196.239 122.800,196.263 123.752,196.291 122.532 C 196.320 121.312,196.320 119.362,196.291 118.198 C 196.263 117.035,196.239 118.033,196.239 120.417 M271.661 117.292 L 270.750 118.250 271.708 117.339 C 272.599 116.493,272.743 116.333,272.619 116.333 C 272.593 116.333,272.162 116.765,271.661 117.292 M261.872 117.000 C 261.872 117.321,261.906 117.452,261.948 117.292 C 261.990 117.131,261.990 116.869,261.948 116.708 C 261.906 116.548,261.872 116.679,261.872 117.000 M173.705 117.333 C 173.705 117.654,173.740 117.785,173.782 117.625 C 173.823 117.465,173.823 117.202,173.782 117.042 C 173.740 116.881,173.705 117.013,173.705 117.333 M274.684 120.025 C 274.097 120.582,273.759 120.960,273.934 120.865 C 274.246 120.694,275.977 118.995,275.827 119.006 C 275.785 119.009,275.270 119.468,274.684 120.025 M186.575 120.042 L 185.917 120.750 186.625 120.091 C 187.284 119.478,187.410 119.333,187.284 119.333 C 187.257 119.333,186.938 119.652,186.575 120.042 M256.409 120.042 L 255.750 120.750 256.458 120.091 C 257.117 119.478,257.243 119.333,257.117 119.333 C 257.090 119.333,256.771 119.652,256.409 120.042 M209.333 119.562 C 209.333 119.742,209.995 121.000,210.090 121.000 C 210.136 121.000,210.013 120.681,209.816 120.292 C 209.430 119.526,209.333 119.380,209.333 119.562 M224.000 119.639 C 224.137 119.724,224.438 119.843,224.667 119.904 C 224.956 119.982,225.007 119.969,224.833 119.861 C 224.696 119.776,224.396 119.657,224.167 119.596 C 223.877 119.518,223.826 119.531,224.000 119.639 M248.500 120.083 C 248.811 120.404,249.103 120.667,249.149 120.667 C 249.195 120.667,248.978 120.404,248.667 120.083 C 248.356 119.763,248.064 119.500,248.018 119.500 C 247.972 119.500,248.189 119.763,248.500 120.083 M225.372 120.762 C 225.165 121.076,225.030 121.333,225.070 121.333 C 225.186 121.333,225.877 120.321,225.808 120.252 C 225.774 120.218,225.578 120.448,225.372 120.762 M268.246 120.671 C 267.995 120.949,267.980 121.044,268.162 121.212 C 268.337 121.375,268.357 121.372,268.258 121.198 C 268.187 121.072,268.258 120.842,268.426 120.656 C 268.587 120.479,268.681 120.333,268.635 120.333 C 268.589 120.333,268.414 120.485,268.246 120.671 M174.981 120.930 C 175.221 121.428,176.604 122.934,177.223 123.369 C 177.513 123.573,177.256 123.255,176.652 122.662 C 176.048 122.069,175.388 121.358,175.184 121.083 C 174.981 120.808,174.890 120.739,174.981 120.930 M162.960 121.785 C 163.168 121.824,163.468 121.823,163.627 121.781 C 163.786 121.739,163.617 121.707,163.250 121.709 C 162.883 121.711,162.753 121.745,162.960 121.785 M182.294 121.785 C 182.501 121.824,182.801 121.823,182.960 121.781 C 183.120 121.739,182.950 121.707,182.583 121.709 C 182.217 121.711,182.086 121.745,182.294 121.785 M217.294 121.785 C 217.501 121.824,217.801 121.823,217.960 121.781 C 218.120 121.739,217.950 121.707,217.583 121.709 C 217.217 121.711,217.086 121.745,217.294 121.785 M245.917 122.310 C 246.283 122.705,246.808 123.184,247.083 123.374 C 247.666 123.778,247.590 123.698,246.250 122.492 C 245.402 121.730,245.351 121.702,245.917 122.310 M252.208 121.782 C 252.369 121.823,252.631 121.823,252.792 121.782 C 252.952 121.740,252.821 121.705,252.500 121.705 C 252.179 121.705,252.048 121.740,252.208 121.782 M270.460 121.785 C 270.668 121.824,270.968 121.823,271.127 121.781 C 271.286 121.739,271.117 121.707,270.750 121.709 C 270.383 121.711,270.253 121.745,270.460 121.785 M277.077 122.542 L 276.250 123.417 277.125 122.590 C 277.606 122.135,278.000 121.741,278.000 121.715 C 278.000 121.590,277.846 121.729,277.077 122.542 M188.833 122.583 C 188.428 122.996,188.135 123.333,188.181 123.333 C 188.226 123.333,188.595 122.996,189.000 122.583 C 189.405 122.171,189.699 121.833,189.653 121.833 C 189.607 121.833,189.238 122.171,188.833 122.583 M258.667 122.583 C 258.262 122.996,257.968 123.333,258.014 123.333 C 258.060 123.333,258.428 122.996,258.833 122.583 C 259.238 122.171,259.532 121.833,259.486 121.833 C 259.440 121.833,259.072 122.171,258.667 122.583 M264.417 122.500 C 264.775 122.867,265.105 123.167,265.151 123.167 C 265.197 123.167,264.941 122.867,264.583 122.500 C 264.225 122.133,263.895 121.833,263.849 121.833 C 263.803 121.833,264.059 122.133,264.417 122.500 M210.833 122.052 C 210.833 122.081,211.077 122.325,211.375 122.594 L 211.917 123.083 211.427 122.542 C 210.971 122.037,210.833 121.923,210.833 122.052 M223.406 123.042 L 222.917 123.583 223.458 123.094 C 223.963 122.638,224.077 122.500,223.948 122.500 C 223.919 122.500,223.675 122.744,223.406 123.042 M157.700 126.542 C 157.734 130.273,157.794 129.841,157.874 125.291 C 157.897 123.939,157.860 122.833,157.792 122.833 C 157.723 122.833,157.682 124.502,157.700 126.542 M167.417 124.014 C 166.958 124.277,166.643 124.494,166.715 124.496 C 166.930 124.502,168.135 123.852,168.249 123.669 C 168.380 123.457,168.409 123.444,167.417 124.014 M212.833 123.741 C 212.833 123.787,213.058 123.941,213.333 124.083 C 213.608 124.226,213.833 124.304,213.833 124.259 C 213.833 124.213,213.608 124.059,213.333 123.917 C 213.058 123.774,212.833 123.696,212.833 123.741 M160.750 124.756 C 161.025 124.882,161.400 124.983,161.583 124.981 C 161.767 124.979,161.579 124.871,161.167 124.741 C 160.241 124.450,160.093 124.455,160.750 124.756 M193.148 124.715 C 193.221 124.788,193.912 124.825,194.682 124.798 L 196.083 124.747 194.549 124.665 C 193.705 124.620,193.075 124.643,193.148 124.715 M228.000 124.708 C 228.000 124.777,228.769 124.821,229.708 124.807 C 231.485 124.779,231.284 124.707,229.208 124.629 C 228.543 124.604,227.999 124.640,228.000 124.708 M162.625 125.122 C 163.015 125.157,163.652 125.157,164.042 125.122 C 164.431 125.087,164.112 125.058,163.333 125.058 C 162.554 125.058,162.235 125.087,162.625 125.122 M181.875 125.123 C 182.310 125.157,183.023 125.157,183.458 125.123 C 183.894 125.088,183.537 125.060,182.667 125.060 C 181.796 125.060,181.440 125.088,181.875 125.123 M217.047 125.123 C 217.485 125.157,218.160 125.157,218.547 125.122 C 218.934 125.087,218.575 125.059,217.750 125.059 C 216.925 125.060,216.609 125.088,217.047 125.123 M251.708 125.123 C 252.144 125.157,252.856 125.157,253.292 125.123 C 253.727 125.088,253.371 125.060,252.500 125.060 C 251.629 125.060,251.273 125.088,251.708 125.123 M270.042 125.123 C 270.477 125.157,271.190 125.157,271.625 125.123 C 272.060 125.088,271.704 125.060,270.833 125.060 C 269.962 125.060,269.606 125.088,270.042 125.123 " stroke="none" fill="#898988" fill-rule="evenodd"></path><path id="path4" d="M141.333 113.125 L 134.250 120.250 141.375 113.167 C 145.294 109.272,148.500 106.066,148.500 106.042 C 148.500 105.925,147.916 106.503,141.333 113.125 M152.667 106.135 C 152.667 106.471,136.378 122.763,135.370 123.436 C 134.100 124.283,133.922 124.466,134.833 123.986 C 136.051 123.345,153.061 106.339,152.773 106.051 C 152.715 105.992,152.667 106.030,152.667 106.135 M125.233 108.647 C 124.876 108.912,124.208 109.529,123.750 110.018 C 122.996 110.824,123.028 110.805,124.083 109.826 C 124.725 109.230,125.438 108.617,125.667 108.463 C 125.896 108.310,126.038 108.180,125.983 108.175 C 125.928 108.171,125.591 108.383,125.233 108.647 M135.000 108.448 C 135.229 108.611,135.889 109.192,136.466 109.739 L 137.515 110.733 132.390 115.860 C 129.571 118.680,127.299 121.009,127.341 121.035 C 127.383 121.062,129.726 118.754,132.549 115.907 L 137.681 110.730 136.694 109.740 C 136.152 109.196,135.455 108.615,135.145 108.451 C 134.618 108.171,134.609 108.170,135.000 108.448 M131.375 110.615 C 131.535 110.657,131.798 110.657,131.958 110.615 C 132.119 110.573,131.987 110.539,131.667 110.539 C 131.346 110.539,131.215 110.573,131.375 110.615 M127.583 111.151 C 127.125 111.416,126.525 111.882,126.250 112.186 C 125.788 112.695,125.806 112.689,126.477 112.103 C 126.876 111.753,127.589 111.288,128.060 111.069 C 128.531 110.849,128.804 110.670,128.667 110.670 C 128.529 110.670,128.042 110.887,127.583 111.151 M132.466 110.809 C 132.620 110.907,132.182 111.437,130.924 112.675 C 129.957 113.627,129.167 114.458,129.167 114.524 C 129.167 114.589,129.993 113.817,131.002 112.809 C 132.681 111.132,132.998 110.662,132.448 110.669 C 132.308 110.671,132.313 110.712,132.466 110.809 M122.242 112.015 C 122.095 112.299,122.005 112.561,122.041 112.597 C 122.077 112.633,122.232 112.401,122.384 112.081 C 122.727 111.362,122.608 111.308,122.242 112.015 M121.394 116.083 C 121.395 117.000,121.423 117.354,121.456 116.869 C 121.490 116.385,121.490 115.635,121.456 115.203 C 121.421 114.770,121.394 115.167,121.394 116.083 M124.723 116.333 C 124.723 117.021,124.752 117.302,124.788 116.958 C 124.824 116.615,124.824 116.052,124.788 115.708 C 124.752 115.365,124.723 115.646,124.723 116.333 M126.701 116.934 C 125.236 118.465,125.162 118.518,125.012 118.143 C 124.910 117.889,124.851 117.846,124.844 118.021 C 124.805 119.019,125.616 118.443,127.987 115.786 C 128.931 114.729,128.114 115.458,126.701 116.934 M143.582 119.168 L 142.423 120.336 143.334 121.210 L 144.246 122.083 143.418 121.206 L 142.591 120.329 143.715 119.206 L 144.838 118.083 148.286 121.542 C 150.182 123.444,151.774 125.000,151.824 125.000 C 151.873 125.000,150.340 123.425,148.417 121.500 C 146.493 119.575,144.879 118.000,144.830 118.000 C 144.781 118.000,144.220 118.526,143.582 119.168 M123.132 121.614 C 123.849 122.629,126.313 124.504,126.917 124.494 C 127.008 124.492,126.633 124.249,126.083 123.954 C 125.533 123.658,124.560 122.892,123.921 122.250 C 123.281 121.608,122.927 121.322,123.132 121.614 M129.795 121.787 C 130.094 121.825,130.544 121.824,130.795 121.786 C 131.045 121.748,130.800 121.717,130.250 121.718 C 129.700 121.719,129.495 121.750,129.795 121.787 M145.500 123.583 C 146.275 124.362,146.947 125.000,146.993 125.000 C 147.038 125.000,146.442 124.362,145.667 123.583 C 144.892 122.804,144.220 122.167,144.174 122.167 C 144.128 122.167,144.725 122.804,145.500 123.583 M129.708 125.121 C 130.052 125.157,130.615 125.157,130.958 125.121 C 131.302 125.085,131.021 125.056,130.333 125.056 C 129.646 125.056,129.365 125.085,129.708 125.121 " stroke="none" fill="#428689" fill-rule="evenodd"></path></g></svg>