<?xml version="1.0" encoding="utf-8"?>
<!-- Generator: Adobe Illustrator 22.1.0, SVG Export Plug-In . SVG Version: 6.00 Build 0)  -->
<svg version="1.1" id="Capa_1" xmlns="http://www.w3.org/2000/svg" xmlns:xlink="http://www.w3.org/1999/xlink" x="0px" y="0px"
	 viewBox="0 0 1200 1200" style="enable-background:new 0 0 1200 1200;" xml:space="preserve">
<style type="text/css">
	.st0{fill:#46B4BC;}
	.st1{fill:#3C3C3B;}
	.st2{fill:#FDC70C;}
	.st3{fill:#FFFFFF;}
	.st4{fill:#027BA4;}
	.st5{fill:#47B5BE;}
	.st6{fill:#FFC909;}
	.st7{clip-path:url(#SVGID_4_);}
	.st8{fill:url(#SVGID_7_);}
	.st9{fill:url(#SVGID_8_);}
	.st10{fill:url(#SVGID_9_);}
	.st11{fill:url(#SVGID_10_);}
</style>
<g>
	<g>
		<path class="st2" d="M75,635.6c3.9,3.4,10.9,5.1,21,5.1c11,0,20.4-3.9,28.1-11.6c1-1,96.5-95.8,99.5-99.3h31.6
			c-5.6,7.8-111.9,113.6-114.5,116.1c-12.4,12.4-27.3,18.6-44.8,18.6c-17.4,0-32.3-6.2-44.7-18.6s-18.6-27.3-18.6-44.8
			s6.2-32.4,18.6-44.8s27.3-18.6,44.7-18.6c15,0,28.1,4.5,39.4,13.6c1.9,1.6,3.7,3.2,5.5,5c0.7,0.7,2.9,3.1,6.3,7L135.6,575
			L75,635.6z M113.5,564.4c-2.6-2-8.4-3-17.5-3c-10.9,0-20.2,3.9-28,11.6s-11.6,17.1-11.6,28.1c0,9,1,14.8,3,17.5L113.5,564.4z"/>
	</g>
</g>
<g>
	<polygon class="st2" points="181.7,631 213.3,663.9 247.6,663.8 198.3,614.5 	"/>
</g>
<g>
	<g>
		<path class="st0" d="M289.3,647.3V700h-23v-153h23v10.3c11.1-13.1,24.1-19.6,38.8-19.6c17.5,0,32.4,6.2,44.8,18.5
			s18.5,27.3,18.5,44.8s-6.2,32.4-18.5,44.8s-27.3,18.6-44.8,18.6C313.4,664.5,300.4,658.8,289.3,647.3z M289.3,592.2v17.9
			c1.4,7,5,13.4,10.8,19.1c7.7,7.7,17.1,11.6,28,11.6c11,0,20.3-3.9,28.1-11.6c7.7-7.7,11.6-17.1,11.6-28.1c0-10.9-3.9-20.2-11.6-28
			c-7.7-7.8-17.1-11.7-28.1-11.7c-11,0-20.3,3.9-28,11.7C294.3,578.8,290.7,585.2,289.3,592.2z"/>
	</g>
</g>
<g>
	<g>
		<path class="st0" d="M443.9,635.6c3.9,3.4,10.9,5.1,21,5.1c11,0,20.4-3.9,28.1-11.6c1-1,2.9-3.3,5.9-6.9l23,8.2
			c-5.6,7.8-9.7,12.9-12.2,15.5c-12.4,12.4-27.3,18.6-44.8,18.6c-17.4,0-32.3-6.2-44.7-18.6s-18.6-27.3-18.6-44.8
			s6.2-32.4,18.6-44.8s27.3-18.6,44.7-18.6c15,0,28.1,4.5,39.4,13.6c1.9,1.6,3.7,3.2,5.5,5c0.7,0.7,2.9,3.1,6.3,7L504.5,575
			L443.9,635.6z M482.4,564.4c-2.6-2-8.4-3-17.5-3c-10.9,0-20.2,3.9-28,11.6c-7.7,7.7-11.6,17.1-11.6,28.1c0,9,1,14.8,3,17.5
			L482.4,564.4z"/>
	</g>
</g>
<g>
	<g>
		<path class="st0" d="M560.8,562.5c8.6-11.6,19.2-17.8,31.7-18.4v23.9c-8.4,0.4-15.1,3.2-20,8.1c-7.5,7.4-11.4,16.2-11.7,26.5v58.8
			h-23V547.1h23V562.5z"/>
	</g>
</g>
<g>
	<g>
		<path class="st0" d="M630.9,504.7c3.2,3.1,4.8,6.9,4.8,11.5s-1.6,8.3-4.8,11.5s-7,4.7-11.5,4.7c-4.4,0-8.2-1.6-11.3-4.7
			s-4.8-6.9-4.8-11.5s1.6-8.3,4.8-11.5s7-4.7,11.3-4.7C623.9,500,627.7,501.6,630.9,504.7z M631,547.1v114.5h-23V547.1H631z"/>
	</g>
</g>
<g>
	<g>
		<path class="st0" d="M691,635.6c3.9,3.4,10.9,5.1,21,5.1c11,0,20.4-3.9,28.1-11.6c1-1,2.9-3.3,5.9-6.9l23,8.2
			c-5.6,7.8-9.7,12.9-12.2,15.5c-12.4,12.4-27.3,18.6-44.8,18.6c-17.4,0-32.3-6.2-44.7-18.6c-12.4-12.4-18.6-27.3-18.6-44.8
			s6.2-32.4,18.6-44.8c12.4-12.4,27.3-18.6,44.7-18.6c15,0,28.1,4.5,39.4,13.6c1.9,1.6,3.7,3.2,5.5,5c0.7,0.7,2.9,3.1,6.3,7
			L751.6,575L691,635.6z M729.5,564.4c-2.6-2-8.4-3-17.5-3c-10.9,0-20.2,3.9-28,11.6c-7.7,7.7-11.6,17.1-11.6,28.1
			c0,9,1,14.8,3,17.5L729.5,564.4z"/>
	</g>
</g>
<g>
	<g>
		<path class="st0" d="M808,577.8v83.8h-23.1V547.1H808v13.3c4.8-13.1,14.5-19.6,29-19.6c12.4,0,22.2,4.4,29.5,13.2
			c7.3,8.8,11.1,19.8,11.3,33.1v74.4h-23V588c0-6.6-2.4-12.3-7.2-17c-4.8-4.7-10.6-7.1-17.2-7.1c-6.6,0-12.3,2.3-17.1,6.9
			C810.5,573.6,808.8,575.9,808,577.8z"/>
	</g>
</g>
<g>
	<g>
		<path class="st0" d="M991.2,622.2l23,8.2c-5.6,7.8-9.7,12.9-12.2,15.5c-12.4,12.4-27.3,18.6-44.8,18.6c-17.4,0-32.3-6.2-44.7-18.6
			c-12.4-12.4-18.6-27.3-18.6-44.8s6.2-32.4,18.6-44.8c12.4-12.4,27.3-18.6,44.7-18.6c17.5,0,32.4,6.2,44.8,18.6
			c2.5,2.5,6.6,7.6,12.2,15.2l-23,8.5c-3-3.6-5-6-6-7c-7.7-7.7-17.1-11.6-28-11.6c-10.9,0-20.2,3.9-28,11.6s-11.6,17.1-11.6,28.1
			c0,10.9,3.9,20.2,11.6,28c7.7,7.7,17.1,11.6,28,11.6c11,0,20.4-3.9,28.1-11.6C986.3,628.1,988.3,625.8,991.2,622.2z"/>
	</g>
</g>
<g>
	<g>
		<path class="st0" d="M1065.6,635.6c3.9,3.4,10.9,5.1,21,5.1c11,0,20.4-3.9,28.1-11.6c1-1,2.9-3.3,5.9-6.9l23,8.2
			c-5.6,7.8-9.7,12.9-12.2,15.5c-12.4,12.4-27.3,18.6-44.8,18.6c-17.4,0-32.3-6.2-44.7-18.6s-18.6-27.3-18.6-44.8
			s6.2-32.4,18.6-44.8s27.3-18.6,44.7-18.6c15,0,28.1,4.5,39.4,13.6c1.9,1.6,3.7,3.2,5.5,5c0.7,0.7,2.9,3.1,6.3,7l-11.6,11.7
			L1065.6,635.6z M1104.1,564.4c-2.6-2-8.4-3-17.5-3c-10.9,0-20.2,3.9-28,11.6c-7.7,7.7-11.6,17.1-11.6,28.1c0,9,1,14.8,3,17.5
			L1104.1,564.4z"/>
	</g>
</g>
</svg>
