<svg enable-background="new 0 0 1200 1200" viewBox="0 0 1200 1200" xmlns="http://www.w3.org/2000/svg"><path d="m86.8 635.6c3.9 3.4 10.9 5.1 21 5.1 11 0 20.4-3.9 28.1-11.6 1-1 96.5-95.8 99.5-99.3h31.6c-5.6 7.8-111.9 113.6-114.5 116.1-12.4 12.4-27.3 18.6-44.8 18.6-17.4 0-32.3-6.2-44.7-18.6s-18.6-27.3-18.6-44.8 6.2-32.4 18.6-44.8 27.3-18.6 44.7-18.6c15 0 28.1 4.5 39.4 13.6 1.9 1.6 3.7 3.2 5.5 5 .7.7 2.9 3.1 6.3 7l-11.5 11.7zm38.5-71.2c-2.6-2-8.4-3-17.5-3-10.9 0-20.2 3.9-28 11.6s-11.6 17.1-11.6 28.1c0 9 1 14.8 3 17.5z" fill="#47b5be"/><path d="m193.4 631 31.7 32.9 34.2-.1-49.2-49.3z" fill="#47b5be"/><g fill="#fff"><path d="m301.1 647.3v52.7h-23v-153h23v10.3c11.1-13.1 24.1-19.6 38.8-19.6 17.5 0 32.4 6.2 44.8 18.5s18.5 27.3 18.5 44.8-6.2 32.4-18.5 44.8-27.3 18.6-44.8 18.6c-14.7.1-27.7-5.6-38.8-17.1zm0-55.1v17.9c1.4 7 5 13.4 10.8 19.1 7.7 7.7 17.1 11.6 28 11.6 11 0 20.3-3.9 28.1-11.6 7.7-7.7 11.6-17.1 11.6-28.1 0-10.9-3.9-20.2-11.6-28s-17.1-11.7-28.1-11.7-20.3 3.9-28 11.7c-5.8 5.7-9.4 12.1-10.8 19.1z"/><path d="m455.7 635.6c3.9 3.4 10.9 5.1 21 5.1 11 0 20.4-3.9 28.1-11.6 1-1 2.9-3.3 5.9-6.9l23 8.2c-5.6 7.8-9.7 12.9-12.2 15.5-12.4 12.4-27.3 18.6-44.8 18.6-17.4 0-32.3-6.2-44.7-18.6s-18.6-27.3-18.6-44.8 6.2-32.4 18.6-44.8 27.3-18.6 44.7-18.6c15 0 28.1 4.5 39.4 13.6 1.9 1.6 3.7 3.2 5.5 5 .7.7 2.9 3.1 6.3 7l-11.6 11.7zm38.5-71.2c-2.6-2-8.4-3-17.5-3-10.9 0-20.2 3.9-28 11.6-7.7 7.7-11.6 17.1-11.6 28.1 0 9 1 14.8 3 17.5z"/><path d="m572.5 562.5c8.6-11.6 19.2-17.8 31.7-18.4v23.9c-8.4.4-15.1 3.2-20 8.1-7.5 7.4-11.4 16.2-11.7 26.5v58.8h-23v-114.3h23z"/><path d="m642.7 504.7c3.2 3.1 4.8 6.9 4.8 11.5s-1.6 8.3-4.8 11.5-7 4.7-11.5 4.7c-4.4 0-8.2-1.6-11.3-4.7-3.2-3.1-4.8-6.9-4.8-11.5s1.6-8.3 4.8-11.5c3.2-3.1 7-4.7 11.3-4.7 4.5 0 8.3 1.6 11.5 4.7zm.1 42.4v114.5h-23v-114.5z"/><path d="m702.7 635.6c3.9 3.4 10.9 5.1 21 5.1 11 0 20.4-3.9 28.1-11.6 1-1 2.9-3.3 5.9-6.9l23 8.2c-5.6 7.8-9.7 12.9-12.2 15.5-12.4 12.4-27.3 18.6-44.8 18.6-17.4 0-32.3-6.2-44.7-18.6s-18.6-27.3-18.6-44.8 6.2-32.4 18.6-44.8 27.3-18.6 44.7-18.6c15 0 28.1 4.5 39.4 13.6 1.9 1.6 3.7 3.2 5.5 5 .7.7 2.9 3.1 6.3 7l-11.5 11.7zm38.5-71.2c-2.6-2-8.4-3-17.5-3-10.9 0-20.2 3.9-28 11.6s-11.6 17.1-11.6 28.1c0 9 1 14.8 3 17.5z"/><path d="m819.7 577.8v83.8h-23.1v-114.5h23.1v13.3c4.8-13.1 14.5-19.6 29-19.6 12.4 0 22.2 4.4 29.5 13.2s11.1 19.8 11.3 33.1v74.4h-23v-73.5c0-6.6-2.4-12.3-7.2-17s-10.6-7.1-17.2-7.1-12.3 2.3-17.1 6.9c-2.7 2.8-4.5 5.1-5.3 7z"/><path d="m1003 622.2 23 8.2c-5.6 7.8-9.7 12.9-12.2 15.5-12.4 12.4-27.3 18.6-44.8 18.6-17.4 0-32.3-6.2-44.7-18.6s-18.6-27.3-18.6-44.8 6.2-32.4 18.6-44.8 27.3-18.6 44.7-18.6c17.5 0 32.4 6.2 44.8 18.6 2.5 2.5 6.6 7.6 12.2 15.2l-23 8.5c-3-3.6-5-6-6-7-7.7-7.7-17.1-11.6-28-11.6s-20.2 3.9-28 11.6c-7.7 7.7-11.6 17.1-11.6 28.1 0 10.9 3.9 20.2 11.6 28 7.7 7.7 17.1 11.6 28 11.6 11 0 20.4-3.9 28.1-11.6 1-1 2.9-3.3 5.9-6.9z"/><path d="m1077.4 635.6c3.9 3.4 10.9 5.1 21 5.1 11 0 20.4-3.9 28.1-11.6 1-1 2.9-3.3 5.9-6.9l23 8.2c-5.6 7.8-9.7 12.9-12.2 15.5-12.4 12.4-27.3 18.6-44.8 18.6-17.4 0-32.3-6.2-44.7-18.6s-18.6-27.3-18.6-44.8 6.2-32.4 18.6-44.8 27.3-18.6 44.7-18.6c15 0 28.1 4.5 39.4 13.6 1.9 1.6 3.7 3.2 5.5 5 .7.7 2.9 3.1 6.3 7l-11.6 11.7zm38.5-71.2c-2.6-2-8.4-3-17.5-3-10.9 0-20.2 3.9-28 11.6s-11.6 17.1-11.6 28.1c0 9 1 14.8 3 17.5z"/></g></svg>